<?xml version="1.0" standalone="no"?>
<!DOCTYPE svg PUBLIC "-//W3C//DTD SVG 20010904//EN"
 "http://www.w3.org/TR/2001/REC-SVG-20010904/DTD/svg10.dtd">
<svg version="1.0" xmlns="http://www.w3.org/2000/svg"
 width="164.000000pt" height="164.000000pt" viewBox="0 0 164.000000 164.000000"
 preserveAspectRatio="xMidYMid meet">
<metadata>
Created by potrace 1.14, written by Peter Selinger 2001-2017
</metadata>
<g transform="translate(0.000000,164.000000) scale(0.100000,-0.100000)"
fill="#000000" stroke="none">
<path d="M364 1617 c-144 -23 -242 -83 -290 -179 -49 -98 -54 -147 -54 -634 0
-509 4 -544 74 -650 41 -61 86 -95 172 -126 57 -21 71 -22 534 -22 261 0 495
3 519 7 147 24 256 135 290 295 7 35 11 212 11 510 0 374 -3 468 -15 515 -42
160 -129 244 -290 277 -69 14 -870 20 -951 7z"/>
</g>
</svg>
